<?xml version="1.0" encoding="UTF-8"?>
<svg width="100px" height="100px" viewBox="0 0 100 100" version="1.1" xmlns="http://www.w3.org/2000/svg" xmlns:xlink="http://www.w3.org/1999/xlink">
    <!-- Generator: sketchtool 55.2 (78181) - https://sketchapp.com -->
    <title>099A6E04-FF41-4357-828E-F7AEFDB074AB</title>
    <desc>Created with sketchtool.</desc>
    <g id="Design" stroke="none" stroke-width="1" fill="none" fill-rule="evenodd">
        <g id="onepager-desktop" transform="translate(-1070.000000, -1328.000000)">
            <g id="icon-sustainable" transform="translate(1070.000000, 1328.000000)">
                <path d="M99.0457447,49.5234043 C99.0457447,22.1723404 76.8734043,2.84217094e-14 49.5223404,2.84217094e-14 C22.1723404,2.84217094e-14 2.84217094e-14,22.1723404 2.84217094e-14,49.5234043 C2.84217094e-14,76.8734043 22.1723404,99.0457447 49.5223404,99.0457447 C76.8734043,99.0457447 99.0457447,76.8734043 99.0457447,49.5234043" id="Fill-1" fill="#8EE7D4"></path>
                <path d="M53.3578031,10.5836544 C51.8224857,11.4050176 50.1829184,12.0842218 49.141472,13.5500392 C47.3576396,16.0604621 46.6110415,20.162013 48.2748285,23.0883826 C50.6304561,27.2331077 56.1967713,26.1674416 56.9465285,29.1590991 C57.7742099,32.4645595 53.5768333,35.7668607 50.6852136,36.0006333 C45.4842997,36.4218452 41.0594687,31.2619995 36.7957513,29.1106597 C32.2592991,26.8213731 28.8011495,30.6049089 25.7284087,33.4944226 C24.077258,35.0476414 22.6303952,36.4071028 21.3930852,38.6974425 C20.6833432,40.0095176 18.376155,44.4375077 19.6587452,49.9701259 C19.8861996,50.9526027 21.4720624,57.3434402 26.5961052,59.5084694 C30.1774593,61.0227261 31.6559131,58.8534849 35.2667521,60.3761659 C39.1503258,62.0136271 41.3374686,63.8448458 42.2041121,69.9145093 C43.0718086,75.9852258 37.0010921,86.3912657 42.2041121,88.1245527 C47.407132,89.8599457 51.1706603,85.9237205 54.344492,83.7892292 C58.5271261,80.9776398 62.6402603,78.2113307 63.8838884,73.3831893 C64.752638,70.0050699 65.1106681,66.2805036 66.4848719,62.9771493 C67.5294774,60.4688325 69.7282035,58.7081668 71.2098164,56.4799558 C75.16289,50.5313908 68.7752116,47.7966725 65.8383116,43.5982429 C64.3882897,41.5248274 64.5515093,39.3218892 66.4817128,37.686534 C67.6316213,36.7124814 68.9879236,36.7409133 70.3779229,37.0978903 C73.7876332,37.9740111 76.9119724,39.7504723 80.3595918,37.830799 C82.4298483,36.6766784 82.7784011,35.4972851 87.2969518,27.4247591 C88.4984587,25.2776315 89.5272688,23.4780036 90.4118138,21.9416332 C84.9508015,13.7322133 77.0794042,7.27187585 67.8095833,3.55468085 C65.1096151,4.72249084 62.4486089,6.00192198 59.8286709,7.27819403 C57.6510054,8.33964801 55.4933474,9.44111712 53.3578031,10.5836544" id="Fill-4" stroke="#FFFFFF" stroke-width="6" fill="#000000"></path>
            </g>
        </g>
    </g>
</svg>