<?xml version="1.0" encoding="UTF-8"?>
<svg width="100px" height="100px" viewBox="0 0 100 100" version="1.1" xmlns="http://www.w3.org/2000/svg" xmlns:xlink="http://www.w3.org/1999/xlink">
    <!-- Generator: sketchtool 55.2 (78181) - https://sketchapp.com -->
    <title>A479FA30-78F5-4930-98AC-0A69ACBF6E90</title>
    <desc>Created with sketchtool.</desc>
    <g id="Design" stroke="none" stroke-width="1" fill="none" fill-rule="evenodd">
        <g id="onepager-desktop" transform="translate(-670.000000, -1328.000000)">
            <g id="icon-directly-from-source" transform="translate(670.000000, 1328.000000)">
                <path d="M9.95735725,0 C10.4803329,0.00675744828 11.0006106,0.0877243917 11.5013805,0.253049564 C13.6657109,0.967127136 15.1302501,3.09325125 15.8136464,5.30860856 C16.4970427,7.52396587 16.5505855,9.88133326 16.8272229,12.1869836 C17.1038604,14.4924219 17.6567204,16.8714087 19.1364093,18.6350892 C21.1772593,21.0677007 24.9105166,21.8108162 27.6963993,20.3394222 C29.8094698,19.2232653 31.2206739,17.1041357 32.3813892,14.9833105 C33.5421045,12.8629092 34.5747738,10.6110955 36.2653132,8.90209955 C38.2991072,6.84592071 41.5058608,6.32451055 44.0607627,7.65241081 C47.1840892,9.27556488 47.9038033,12.911235 46.788122,16.1005271 C45.331884,19.5223343 41.3574769,20.7226374 38.2347729,22.0261628 C35.613669,23.1204883 32.9336265,24.4288887 31.2283525,26.7375063 C29.6301639,28.9007226 29.0818696,31.7229081 29.1906154,34.4302138 C29.3888065,39.3628387 31.2370687,44.0741822 33.1301574,48.5525868 C34.1022279,50.8525142 35.1807614,53.1111105 36.4541655,55.2544029 C38.7909533,59.1876584 42.1516942,62.9028117 46.7389374,63.8661488 C46.9157529,63.9034529 47.1056429,63.9352462 47.272082,63.8636053 C47.4987047,63.7658939 47.6118086,63.509216 47.6915001,63.2711901 C48.894344,59.6755796 48.2310781,55.8243509 46.788122,52.4122937 C46.0499378,50.6668414 45.1137699,49.0125299 44.0740446,47.4377016 C42.3984474,44.9001722 39.729404,42.451452 39.2911006,39.2772087 C38.85425,36.1133512 41.3599672,32.9785316 44.4229025,32.3280406 C47.4858379,31.6773377 50.7556806,33.2341497 52.6620512,35.767652 C54.8776415,38.7119238 55.143695,42.3950719 55.0208372,45.9696989 C54.8894707,49.7882864 53.7611301,53.492842 53.0044757,57.2107508 C52.2976285,60.6842751 51.896473,64.3373255 52.8596198,67.7459915 C53.2144961,69.0022508 53.9526803,70.3818682 55.3283967,70.3858953 C55.8818792,70.387379 56.4077602,70.1440543 56.8194998,69.7659259 C57.6817869,68.9736368 57.986856,67.8358605 58.2446083,66.7296656 C58.7852239,64.4085425 59.1946806,62.0581697 59.6039298,59.7092805 C60.196843,56.3042178 60.7897562,52.8985192 61.3029779,49.4798914 C62.0461429,44.5292503 62.2125819,39.9268519 59.9704278,35.2939318 C58.8375215,32.952673 57.2584257,30.8695759 55.970702,28.6135231 C54.6831859,26.3572584 53.6691943,23.8142182 53.8451797,21.208863 C54.0211652,18.6037198 55.6598221,15.9686909 58.1433336,15.3480856 C60.4174474,14.7798333 62.8600756,16.0307938 64.2714871,17.9386039 C65.6826911,19.8462021 66.2189487,22.2875038 66.3963868,24.6715775 C66.8216158,30.3810188 66.9523597,36.1078404 66.9998841,41.8321185 C67.030391,45.4957667 67.369495,51.6863466 67.6023437,55.5613143 C67.6934493,57.0803983 69.7938605,57.3603913 70.2385973,55.9080732 C70.2425404,55.8947201 70.246691,55.8811549 70.250219,55.8680137 C70.7709118,54.0331162 70.5814369,52.0663825 70.7358392,50.1801919 C70.8937695,48.2528819 71.2046495,46.3374414 71.6703468,44.4626963 C72.677905,40.4062949 74.1868556,36.0586667 77.2761472,33.1402535 C79.2007805,31.3216766 81.9686081,30.2269272 84.4919654,30.9547819 C86.9682134,31.6690714 88.7755922,34.0584441 89.2676459,36.6377287 C89.7596995,39.2170134 89.0829442,41.9217756 87.8429524,44.2242466 C86.6029606,46.5269295 84.8314845,48.4807339 83.0035603,50.3300443 C80.577327,52.7842753 78.1251525,55.221126 75.9585392,57.9163502 C74.8563474,59.2879132 73.9039922,60.7768996 73.1512809,62.3777983 C72.8999621,62.9121378 72.6729242,63.556694 72.9564102,64.073865 C73.169336,64.4619553 73.6327505,64.6586498 74.0681484,64.6359706 C75.2938206,64.5721721 76.3493182,63.6535576 77.3550086,63.0371914 C78.5113658,62.3284127 79.6872308,61.6321394 80.8570774,60.9405291 C83.3930941,59.4413689 85.9747673,58.0219039 88.5964939,56.6851016 C90.0834463,55.9267253 91.6081693,55.1867892 93.2468262,54.9025571 C94.8854831,54.6185369 96.676467,54.84109 98.0032063,55.8637746 C99.5308347,57.0409746 100.212778,59.1558651 99.9419516,61.0908054 C99.6709174,63.0257458 98.5463123,64.7654753 97.0875839,66.0306368 C95.3161078,67.5675251 92.7989764,68.8233605 90.4659241,69.1048372 C84.3396384,69.8443494 77.4681125,68.7888118 71.6844588,71.3136239 C68.6547283,72.6362253 66.1705942,74.9806634 64.2889196,77.7104363 C62.2107142,80.7250773 60.8455818,84.2051722 59.9905582,87.7730166 C59.5649142,89.5485665 59.2650333,91.355062 59.0709928,93.1719432 C58.8869136,94.8995913 59.131384,96.8779825 58.7792056,98.5532776 C58.6903827,98.9759165 58.4390639,99.3873219 58.0464171,99.5486199 C57.8143986,99.6439998 57.5566463,99.6446357 57.3049124,99.6437878 C55.6372013,99.6387009 53.9694902,99.6338259 52.3017791,99.628739 C51.467716,99.6261956 50.6336529,99.623864 49.7995899,99.6213206 C49.2940468,99.6196249 47.5615863,99.904069 47.1869947,99.5596416 C46.5720833,98.9945686 48.3578789,96.4987944 48.6953227,95.7518637 C49.3484196,94.3069641 49.8819793,92.802717 50.2173478,91.2469647 C50.8281086,88.4139695 50.758586,85.373894 49.655564,82.7005011 C48.5527496,80.0271083 46.3417249,77.7706317 43.6048193,76.995087 C41.5708177,76.4187804 39.3573027,76.677366 37.4083884,77.5056875 C35.8205764,78.1807653 34.4012787,79.2180747 33.1704182,80.436818 C32.6298026,80.9722172 32.1948197,81.5425891 31.7762317,82.1818464 C29.6268434,85.4720293 28.8309659,89.2482258 27.6098593,92.9426075 C26.6348834,95.8909064 24.84805,98.9110582 21.9214619,99.7773197 C19.0855644,100.616663 15.8736226,98.9964762 14.4151017,96.3743766 C12.9567884,93.752277 13.1140961,90.3915129 14.399952,87.6770008 C15.1038938,86.1905579 16.1187155,84.8779184 17.3001838,83.7570985 C18.1305114,82.9690486 19.8314273,81.2231723 20.9620507,80.9980758 C21.1274521,80.9650107 21.2907783,80.9283425 21.3700547,80.7551749 C22.1011829,80.5158773 22.7775232,80.1619119 23.4198286,79.7365175 C25.760767,78.8427018 28.1562858,78.1025537 30.2303407,76.6269206 C31.1918272,75.9427287 32.1497857,75.0088535 32.2056112,73.8132133 C32.2510603,72.8375829 31.6539965,71.9217238 30.8763816,71.3528356 C30.0987667,70.7839475 29.1586557,70.5033186 28.2330719,70.2572384 C24.017515,69.1359946 19.680968,68.6203073 15.4153963,67.7485349 C11.588128,66.9666316 7.44852704,66.0405987 4.27103516,63.594422 C1.89979734,61.7688506 0.109228474,58.980366 0.0042182923,55.9496165 C-0.100999419,52.9190789 1.77092121,49.7698463 4.63462773,48.9688671 C6.50613329,48.4455493 8.53785203,48.9381335 10.2414658,49.8864218 C11.9450796,50.834922 13.3791119,52.2075448 14.7930139,53.5646949 C17.0233388,55.7060798 19.124165,57.8256333 21.4719519,59.8095354 C24.0449089,61.9839853 26.8067182,63.92698 29.7102705,65.612237 C30.4679625,66.0520443 31.2688208,66.4842213 32.1394092,66.5295797 C33.00979,66.5749382 33.9669184,66.11987 34.2367074,65.2735323 C34.4421621,64.6289761 34.2082758,63.9095996 33.8127236,63.3657222 C33.4169639,62.8216328 32.8753106,62.4114992 32.3681072,61.9744473 C29.8596921,59.8122908 28.091744,56.8656875 26.8573555,53.7592699 C25.2674682,49.7586127 24.5081159,45.4648212 23.2795383,41.3878601 C23.0234463,40.5377072 22.8269153,39.6797119 22.5241291,38.8424883 C21.921877,37.1782149 21.1272446,35.5870661 20.1688711,34.1076177 C18.0367078,30.8163751 15.2271666,28.6713869 12.1258383,26.4384373 C10.6075487,24.9170218 8.72068596,23.8845873 7.23228078,22.2974657 C5.68888014,20.6522683 4.42792784,18.7245343 3.58701627,16.6111276 C1.63561165,11.7064808 1.5889174,4.37579306 6.39801016,1.10807744 C7.4447915,0.396967246 8.70823416,-0.014650042 9.95735725,0" id="Fill-1" fill="#8EE7D4"></path>
                <circle id="Oval" fill="#000000" cx="82.5" cy="47.5" r="5.5"></circle>
                <circle id="Oval" fill="#000000" cx="6" cy="29" r="5"></circle>
                <circle id="Oval" fill="#000000" cx="74.5" cy="83.5" r="3.5"></circle>
                <circle id="Oval" fill="#000000" cx="33.5" cy="48.5" r="5.5"></circle>
                <circle id="Oval" fill="#000000" cx="25" cy="80" r="7"></circle>
                <circle id="Oval" fill="#000000" cx="58.5" cy="18.5" r="5.5"></circle>
            </g>
        </g>
    </g>
</svg>