<?xml version="1.0" encoding="UTF-8"?>
<svg width="100px" height="100px" viewBox="0 0 100 100" version="1.1" xmlns="http://www.w3.org/2000/svg" xmlns:xlink="http://www.w3.org/1999/xlink">
    <!-- Generator: sketchtool 55.2 (78181) - https://sketchapp.com -->
    <title>A183CB23-399A-4B25-85DE-4A558713489B</title>
    <desc>Created with sketchtool.</desc>
    <g id="Design" stroke="none" stroke-width="1" fill="none" fill-rule="evenodd">
        <g id="onepager-desktop" transform="translate(-270.000000, -1328.000000)">
            <g id="icon-no-fish" transform="translate(270.000000, 1328.000000)">
                <path d="M32.134111,31.1033592 C32.1212542,32.9179248 33.4647899,34.3450387 35.2390285,34.3902414 C37.0068386,34.4419017 38.6075104,32.8533495 38.5753684,31.0904441 C38.5432264,29.3662839 37.0389806,27.9068824 35.3033125,27.9197974 C33.4776467,27.926255 32.1469678,29.2629635 32.134111,31.1033592 M66.2882031,80.3743049 C65.6903618,76.5127026 65.0539502,72.6640154 64.5203929,68.7959556 C64.1604025,66.2646042 63.3054252,64.8504054 60.3997882,64.7406274 C52.2614331,64.4564961 44.8044885,62.0478378 38.3760879,56.8947298 C30.9898557,50.9731757 26.9142498,43.1466507 25.4742881,33.8413515 C24.9664444,30.5415542 24.927874,27.2288418 24.9343024,23.909672 C24.9343024,23.3026643 24.7800208,22.7214867 25.7957081,22.6827415 C34.4033364,22.359865 42.6702595,23.5674229 50.1014905,28.2620465 C59.8919446,34.4483592 65.098949,43.5405599 66.5131971,54.9510135 C66.6674787,56.2360618 66.7574763,57.5211101 66.8410455,58.8190734 C66.9760419,60.9823456 67.843876,61.9251448 69.9716766,62.2544788 C73.9508565,62.867944 77.9236081,63.5201544 81.8963596,64.1594498 C82.0892116,64.1917374 82.2756352,64.2692278 82.9506173,64.4758687 C75.7058099,68.324556 70.3188102,73.6068146 66.6803355,80.6584362 C66.5453391,80.5615733 66.4167711,80.4711679 66.2882031,80.3743049" id="Fill-1" fill="#020203"></path>
                <path d="M50,90 C40.4414228,90 31.8400828,86.7589673 25,81 L81,25 C86.7592866,31.8343516 90,40.4365392 90,50 C90,71.9629484 71.9647256,90 50,90 M50,10 C59.5634608,10 68.1656484,13.2410327 75,19 L19,75 C13.2410327,68.1592432 10,59.5634608 10,50 C10,28.0370516 28.0370516,10 50,10 M50,0 C22.4308682,0 0,22.4308682 0,50 C0,77.5691318 22.4308682,100 50,100 C77.5691318,100 100,77.5691318 100,50 C100,22.4308682 77.5691318,0 50,0" id="Fill-3" fill="#8EE7D4"></path>
            </g>
        </g>
    </g>
</svg>