<?xml version="1.0" encoding="UTF-8"?>
<svg width="113px" height="50px" viewBox="0 0 113 50" version="1.1" xmlns="http://www.w3.org/2000/svg" xmlns:xlink="http://www.w3.org/1999/xlink">
    <!-- Generator: sketchtool 55.2 (78181) - https://sketchapp.com -->
    <title>75930751-3EDE-4B32-BE86-DC9DBE69D353</title>
    <desc>Created with sketchtool.</desc>
    <g id="Design" stroke="none" stroke-width="1" fill="none" fill-rule="evenodd">
        <g id="onepager-desktop" transform="translate(-140.000000, -15.000000)">
            <g id="Group-3">
                <g id="logo" transform="translate(140.000000, 15.000000)">
                    <g>
                        <path d="M12.5140221,39.7770139 C12.5140221,37.556875 10.9729239,35.8860417 8.85365399,35.8860417 C6.73438405,35.8860417 5.19328589,37.556875 5.19328589,39.7770139 C5.19328589,41.9971528 6.73438405,43.6686806 8.85365399,43.6686806 C10.9729239,43.6686806 12.5140221,41.9971528 12.5140221,39.7770139 M0.000138650307,39.8721528 C0.000138650307,34.3436806 3.91631656,30.0971528 8.8592,30.0971528 C13.8020834,30.0971528 17.7182613,34.3436806 17.7182613,39.8721528 C17.7182613,45.4013194 13.8020834,49.6478472 8.8592,49.6478472 C3.91631656,49.6478472 0.000138650307,45.4013194 0.000138650307,39.8721528 Z M39.9821037,48.5135417 L33.6104288,49.1086806 L33.4683123,41.3024306 L29.3698092,47.1024306 L24.9087356,40.771875 L24.9087356,48.9642361 L19.3322202,48.5920139 L19.3322202,31.0899306 L24.9087356,30.7177083 L29.4502264,38.1420139 L33.3851221,30.9552083 L38.7904043,31.1371528 L39.9821037,48.5135417 Z M52.7212939,43.5202083 L52.5916558,49.4813194 L41.589754,48.7736806 L41.3679135,31.1903472 L51.779165,30.3452083 L52.2776129,35.4945139 L45.6113061,35.8202083 L45.892073,37.774375 L50.9098276,37.3674306 L51.2675454,41.7875694 L46.2886129,42.2972917 L46.440435,44.2986806 L52.7212939,43.5202083 Z M62.2220288,49.35375 C56.8070411,48.7836111 53.5445994,44.235 54.1102926,38.8475 C54.6815319,33.4079167 58.5360104,30.0051389 63.6827098,30.1516667 C67.621765,30.2641667 70.2089798,32.1433333 71.4589123,34.8669444 L66.7032067,37.3454167 C66.1950534,36.2870833 65.1149675,35.485 63.5960534,35.3252778 C61.1218387,35.0641667 59.7166178,36.7676389 59.4420902,39.3829167 C59.2140104,41.55375 60.1706975,44.0961111 63.3561883,44.4322222 C65.1939982,44.6252778 66.0924521,43.9475 66.4369982,42.9495833 L63.0033233,42.4995833 L63.6577528,38.5898611 L71.9525074,39.4634722 C71.4499,47.5058333 67.4408264,49.90375 62.2220288,49.35375 Z M81.5694313,42.26625 L80.091419,37.7884722 L78.8588178,42.5683333 L81.5694313,42.26625 Z M82.8706644,46.3225 L77.9402595,46.6822222 L77.3925908,49.6141667 L71.5283761,49.7926389 L76.006781,31.2572222 L82.1545356,30.77875 L89.4017871,47.8329167 L83.6498791,48.8593056 L82.8706644,46.3225 Z M88.0337939,36.7730556 L96.4609595,36.7730556 L96.2384258,41.6015278 L88.0337939,41.4404167 L88.0337939,36.7730556 Z M110.030318,43.8504167 C109.808478,48.2483333 106.454527,50.0927778 102.660361,49.9004167 C98.8765945,49.70875 96.1015086,48.2580556 95.1441282,45.1608333 L100.278349,42.3670833 C100.567435,43.63375 101.706447,44.5719444 102.925877,44.6330556 C103.901975,44.6830556 104.577895,44.1997222 104.62365,43.3038889 C104.671484,42.3538889 104.041318,41.9136111 103.065913,41.8643056 L102.174392,41.8191667 L100.249233,38.4816667 L103.008374,35.5233333 L97.1503982,35.4136111 L96.987484,30.3455556 L109.624766,31.4372222 L109.389061,36.1045833 L106.258337,38.3788889 C108.581423,39.1768056 110.171742,41.0538889 110.030318,43.8504167 Z" id="OMEGA-3" fill="#020203"></path>
                        <path d="M16.4697847,12.2325694 C16.2881528,6.63256944 8.82252699,9.20826389 8.82252699,9.20826389 L8.88561288,17.5103472 C8.88561288,17.5103472 16.6881589,18.9520139 16.4697847,12.2325694 M24.0310791,12.1242361 C24.3638399,19.2159028 19.3634166,24.906875 12.4627908,25.231875 L0.925005521,25.731875 L0.918073006,0.649930556 L11.2863429,0.161736111 C18.1869687,-0.163263889 23.6983184,5.03326389 24.0310791,12.1242361 Z M37.2947141,15.9875694 L35.3577693,10.580625 L33.526892,16.024375 L37.2947141,15.9875694 Z M38.2403092,22.2514583 L31.9386528,22.174375 L30.897389,26.1778472 L21.8518429,26.2840972 L31.7209718,6.94444444e-05 L39.4812294,0.491736111 L47.4702601,26.6577083 L39.4632049,26.736875 L38.2403092,22.2514583 Z M56.0924374,0.449375 L57.4498239,25.6375694 L49.2611368,26.1104861 L48.7405049,0.482708333 L56.0924374,0.449375 Z M75.156508,18.1756944 L74.6857902,25.4888889 L59.4848638,25.94375 L60.0845264,1.19027778 L68.6704466,0.71875 L67.1494528,18.1756944 L75.156508,18.1756944 Z M86.5602877,16.7603472 L86.9318706,27.1402083 L78.9248153,26.4325694 L78.9248153,17.1589583 L70.6820546,2.37006944 L77.9826865,0.482569444 L82.5567601,9.44715278 L86.4902693,0.154791667 L94.8994104,1.09854167 L86.5602877,16.7603472 Z M89.5079239,17.7793056 L95.9156479,16.405 C96.3849791,18.5598611 98.3461877,19.7855556 100.42109,20.0244444 C100.872396,20.0765278 101.341034,20.0911111 101.768771,19.9369444 C102.195813,19.7841667 102.577102,19.4320833 102.65336,18.9834722 C102.750415,18.4140278 102.34209,17.8702778 101.863053,17.5480556 C101.188519,17.0945833 100.401679,16.7647222 99.6869362,16.3730556 C96.0314209,14.3709722 93.3409117,11.6216667 94.2462982,7.30777778 C95.1385129,3.06125 99.148973,0.527222222 104.297059,1.61194444 C108.199372,2.43416667 110.758856,4.35152778 112.33531,7.63555556 L106.371961,11.1994444 C106.039893,9.26472222 104.25893,8.15013889 103.01385,7.88763889 C101.769464,7.62583333 101.110182,8.08486111 100.968758,8.75916667 C100.749691,9.80430556 101.815912,10.4154167 104.344893,11.7584722 C107.81947,13.6161111 111.189366,15.805 110.156421,20.7258333 C109.137341,25.5793056 103.760482,27.8070833 98.1749546,26.6306944 C92.925654,25.5244444 89.9086233,21.5591667 89.5079239,17.7793056 Z" id="DAILYS" fill="#FEFEFE"></path>
                    </g>
                </g>
            </g>
        </g>
    </g>
</svg>