<?xml version="1.0" encoding="utf-8"?><svg xmlns="http://www.w3.org/2000/svg" xmlns:xlink="http://www.w3.org/1999/xlink"><symbol viewBox="0 0 100 100" id="icon-directly-from-source" xmlns="http://www.w3.org/2000/svg"><g fill-rule="evenodd"><path d="M9.957 0a5.128 5.128 0 0 1 1.544.253c2.165.714 3.63 2.84 4.313 5.056.683 2.215.737 4.572 1.013 6.878.277 2.305.83 4.684 2.31 6.448 2.04 2.433 5.774 3.176 8.56 1.704 2.112-1.116 3.524-3.235 4.684-5.356 1.161-2.12 2.194-4.372 3.884-6.08 2.034-2.057 5.24-2.578 7.796-1.25 3.123 1.623 3.843 5.258 2.727 8.448-1.456 3.421-5.43 4.622-8.553 5.925-2.621 1.094-5.301 2.403-7.007 4.712-1.598 2.163-2.146 4.985-2.037 7.692.198 4.933 2.046 9.644 3.94 14.123.971 2.3 2.05 4.558 3.323 6.701 2.337 3.934 5.698 7.649 10.285 8.612.177.037.367.07.533-.002.227-.098.34-.355.42-.593 1.202-3.595.54-7.447-.904-10.859-.738-1.745-1.674-3.4-2.714-4.974-1.676-2.538-4.345-4.987-4.783-8.16-.437-3.165 2.069-6.3 5.132-6.95 3.063-.65 6.333.906 8.24 3.44 2.215 2.944 2.48 6.627 2.358 10.202-.132 3.818-1.26 7.523-2.017 11.24-.706 3.474-1.108 7.127-.144 10.536.354 1.256 1.093 2.636 2.468 2.64.554.001 1.08-.242 1.491-.62.863-.792 1.168-1.93 1.426-3.036.54-2.321.95-4.672 1.359-7.02.593-3.406 1.186-6.811 1.699-10.23.743-4.95.91-9.553-1.333-14.186-1.132-2.341-2.712-4.424-4-6.68-1.287-2.257-2.3-4.8-2.125-7.405.176-2.605 1.815-5.24 4.298-5.86 2.274-.57 4.717.682 6.128 2.59 1.412 1.907 1.948 4.349 2.125 6.733.426 5.709.556 11.436.604 17.16.03 3.664.37 9.854.602 13.73.091 1.518 2.192 1.798 2.637.346l.011-.04c.52-1.835.331-3.802.486-5.688.158-1.927.469-3.843.934-5.717 1.008-4.057 2.517-8.404 5.606-11.323 1.925-1.818 4.693-2.913 7.216-2.185 2.476.714 4.284 3.103 4.776 5.683.492 2.579-.185 5.284-1.425 7.586-1.24 2.303-3.012 4.257-4.84 6.106-2.426 2.454-4.878 4.891-7.044 7.586a22.24 22.24 0 0 0-2.808 4.462c-.251.534-.478 1.179-.195 1.696.213.388.677.585 1.112.562 1.226-.064 2.281-.982 3.287-1.599a256.405 256.405 0 0 1 3.502-2.096c2.536-1.5 5.118-2.92 7.74-4.256 1.486-.758 3.011-1.498 4.65-1.782 1.638-.284 3.43-.062 4.756.96 1.528 1.178 2.21 3.293 1.939 5.228-.271 1.935-1.396 3.674-2.854 4.94-1.772 1.537-4.289 2.792-6.622 3.074-6.126.74-12.998-.316-18.782 2.209-3.03 1.322-5.513 3.667-7.395 6.396-2.078 3.015-3.443 6.495-4.298 10.063a42.543 42.543 0 0 0-.92 5.399c-.184 1.728.06 3.706-.292 5.381-.089.423-.34.834-.733.996-.232.095-.49.096-.741.095l-5.003-.015-2.502-.008c-.506-.001-2.238.283-2.613-.061-.615-.565 1.17-3.061 1.508-3.808.653-1.445 1.187-2.95 1.522-4.505.611-2.833.542-5.873-.561-8.546-1.103-2.674-3.314-4.93-6.051-5.706-2.034-.576-4.248-.318-6.197.51-1.587.676-3.007 1.713-4.238 2.932-.54.535-.975 1.106-1.394 1.745-2.15 3.29-2.945 7.066-4.166 10.76-.975 2.949-2.762 5.97-5.689 6.835-2.835.84-6.047-.78-7.506-3.403-1.458-2.622-1.3-5.982-.015-8.697.704-1.486 1.719-2.8 2.9-3.92.83-.788 2.531-2.534 3.662-2.759.165-.033.329-.07.408-.243a8.509 8.509 0 0 0 2.05-1.018c2.34-.894 4.736-1.634 6.81-3.11.962-.684 1.92-1.618 1.976-2.814.045-.975-.552-1.891-1.33-2.46-.777-.57-1.717-.85-2.643-1.096-4.215-1.121-8.552-1.637-12.818-2.508-3.827-.782-7.966-1.708-11.144-4.155C1.9 61.77.109 58.98.004 55.95c-.105-3.03 1.767-6.18 4.63-6.981 1.872-.523 3.904-.03 5.607.917 1.704.949 3.138 2.322 4.552 3.679 2.23 2.141 4.331 4.26 6.679 6.245a57.448 57.448 0 0 0 8.238 5.802c.758.44 1.559.872 2.43.918.87.045 1.827-.41 2.097-1.256.205-.645-.029-1.364-.424-1.908-.396-.544-.938-.955-1.445-1.392-2.508-2.162-4.276-5.108-5.51-8.215-1.59-4-2.35-8.294-3.578-12.371-.257-.85-.453-1.708-.756-2.546a23.313 23.313 0 0 0-2.355-4.734c-2.132-3.292-4.942-5.437-8.043-7.67-1.518-1.521-3.405-2.553-4.894-4.14-1.543-1.646-2.804-3.573-3.645-5.687C1.636 11.706 1.589 4.376 6.398 1.108 7.445.397 8.708-.015 9.958 0"/><circle cx="82.5" cy="47.5" r="5.5"/><circle cx="6" cy="29" r="5"/><circle cx="74.5" cy="83.5" r="3.5"/><circle cx="33.5" cy="48.5" r="5.5"/><circle cx="25" cy="80" r="7"/><circle cx="58.5" cy="18.5" r="5.5"/></g></symbol><symbol viewBox="0 0 100 100" id="icon-no-fish" xmlns="http://www.w3.org/2000/svg"><g fill-rule="evenodd"><path d="M32.134 31.103c-.013 1.815 1.33 3.242 3.105 3.287 1.768.052 3.369-1.537 3.336-3.3-.032-1.724-1.536-3.183-3.272-3.17-1.825.006-3.156 1.343-3.169 3.183m34.154 49.271c-.598-3.861-1.234-7.71-1.768-11.578-.36-2.531-1.215-3.946-4.12-4.055-8.139-.285-15.596-2.693-22.024-7.846-7.386-5.922-11.462-13.748-12.902-23.054-.508-3.3-.546-6.612-.54-9.931 0-.607-.154-1.189.862-1.227 8.607-.323 16.874.884 24.305 5.579 9.79 6.186 14.998 15.279 16.412 26.689.154 1.285.244 2.57.328 3.868.135 2.163 1.003 3.106 3.13 3.435 3.98.614 7.953 1.266 11.925 1.905.193.033.38.11 1.055.317-7.245 3.849-12.632 9.13-16.27 16.182a15.96 15.96 0 0 1-.393-.284"/><path d="M50 90c-9.559 0-18.16-3.241-25-9l56-56c5.76 6.834 9 15.437 9 25 0 21.963-18.035 40-40 40m0-80c9.563 0 18.166 3.241 25 9L19 75c-5.759-6.84-9-15.437-9-25 0-21.963 18.037-40 40-40m0-10C22.43 0 0 22.43 0 50s22.43 50 50 50 50-22.43 50-50S77.57 0 50 0"/></g></symbol><symbol viewBox="0 0 100 100" id="icon-sustainable" xmlns="http://www.w3.org/2000/svg"><g fill-rule="evenodd"><path d="M99.046 49.523C99.046 22.173 76.873 0 49.522 0 22.172 0 0 22.172 0 49.523c0 27.35 22.172 49.523 49.522 49.523 27.351 0 49.524-22.173 49.524-49.523"/><path d="M53.358 10.584c-1.536.821-3.175 1.5-4.217 2.966-1.783 2.51-2.53 6.612-.866 9.538 2.355 4.145 7.922 3.08 8.672 6.071.827 3.306-3.37 6.608-6.262 6.842-5.2.42-9.626-4.739-13.89-6.89-4.536-2.29-7.994 1.494-11.067 4.383-1.65 1.554-3.098 2.913-4.335 5.203-.71 1.313-3.017 5.74-1.734 11.273.227.983 1.813 7.373 6.937 9.538 3.581 1.515 5.06-.655 8.67.868 3.884 1.638 6.071 3.469 6.938 9.539.868 6.07-5.203 16.476 0 18.21 5.203 1.735 8.967-2.201 12.14-4.336 4.183-2.811 8.296-5.578 9.54-10.406.869-3.378 1.227-7.102 2.6-10.406 1.045-2.508 3.244-4.269 4.726-6.497 3.953-5.949-2.435-8.683-5.372-12.882-1.45-2.073-1.286-4.276.644-5.911 1.15-.975 2.506-.946 3.896-.59 3.41.877 6.534 2.653 9.982.734 2.07-1.154 2.418-2.334 6.937-10.406a504.817 504.817 0 0 1 3.115-5.483A49.161 49.161 0 0 0 67.81 3.555c-2.7 1.167-5.361 2.447-7.981 3.723a192.636 192.636 0 0 0-6.471 3.306"/></g></symbol><symbol viewBox="0 0 113 50" id="logo" xmlns="http://www.w3.org/2000/svg"><g fill-rule="evenodd"><path d="M12.514 39.777c0-2.22-1.541-3.891-3.66-3.891-2.12 0-3.66 1.67-3.66 3.891 0 2.22 1.54 3.892 3.66 3.892 2.119 0 3.66-1.672 3.66-3.892M0 39.872c0-5.528 3.916-9.775 8.86-9.775 4.942 0 8.858 4.247 8.858 9.775 0 5.53-3.916 9.776-8.859 9.776S0 45.4 0 39.872zm39.982 8.642l-6.372.595-.142-7.807-4.098 5.8-4.461-6.33v8.192l-5.577-.372V31.09l5.577-.372 4.541 7.424 3.935-7.187 5.405.182 1.192 17.377zm12.74-4.994l-.13 5.961-11.002-.707-.222-17.584 10.411-.845.499 5.15-6.667.325.281 1.954 5.018-.407.358 4.42-4.98.51.152 2.002 6.281-.779zm9.5 5.834c-5.415-.57-8.677-5.119-8.112-10.507.572-5.44 4.426-8.842 9.573-8.695 3.939.112 6.526 1.991 7.776 4.715l-4.756 2.478c-.508-1.058-1.588-1.86-3.107-2.02-2.474-.26-3.88 1.443-4.154 4.058-.228 2.17.729 4.713 3.914 5.05 1.838.192 2.736-.486 3.081-1.483l-3.434-.45.655-3.91 8.295.873c-.503 8.043-4.512 10.44-9.731 9.89zm19.347-7.088l-1.478-4.478-1.232 4.78 2.71-.302zm1.302 4.056l-4.93.36-.548 2.932-5.865.179 4.479-18.536 6.148-.478 7.247 17.054-5.752 1.026-.78-2.537zm5.163-9.549h8.427l-.223 4.829-8.204-.162v-4.667zm21.996 7.077c-.222 4.398-3.575 6.243-7.37 6.05-3.783-.191-6.558-1.642-7.516-4.74l5.134-2.793c.29 1.267 1.428 2.205 2.648 2.266.976.05 1.652-.433 1.698-1.33.047-.95-.583-1.39-1.558-1.439l-.892-.045-1.925-3.337 2.76-2.959-5.859-.11-.163-5.067 12.638 1.091-.236 4.668-3.13 2.274c2.322.798 3.913 2.675 3.771 5.471zM16.47 12.233c-.182-5.6-7.647-3.025-7.647-3.025l.063 8.302s7.802 1.442 7.584-5.277m7.561-.109c.333 7.092-4.668 12.783-11.568 13.108l-11.538.5L.918.65 11.286.162c6.901-.325 12.412 4.871 12.745 11.962zm13.264 3.864l-1.937-5.407-1.831 5.443 3.768-.036zm.945 6.263l-6.301-.077-1.042 4.004-9.045.106L31.72 0l7.76.492 7.99 26.166-8.008.079-1.223-4.486zM56.092.45l1.358 25.189-8.189.472-.52-25.627L56.092.45zm19.065 17.727l-.471 7.313-15.201.455.6-24.754L68.67.72l-1.52 17.457h8.007zM86.56 16.76l.372 10.38-8.007-.707v-9.274L70.682 2.37l7.3-1.887 4.575 8.964L86.49.155l8.41.944-8.34 15.661zm2.948 1.02l6.408-1.375c.469 2.155 2.43 3.38 4.505 3.62.451.052.92.066 1.348-.088.427-.153.808-.505.884-.954.097-.569-.31-1.113-.79-1.435-.674-.453-1.461-.783-2.176-1.175-3.656-2.002-6.346-4.751-5.44-9.065.892-4.247 4.902-6.78 10.05-5.696 3.902.822 6.462 2.74 8.038 6.024l-5.963 3.563c-.332-1.934-2.113-3.049-3.358-3.311s-1.904.197-2.045.871c-.22 1.045.847 1.656 3.376 3 3.474 1.857 6.844 4.046 5.811 8.967-1.019 4.853-6.396 7.081-11.981 5.905-5.25-1.107-8.266-5.072-8.667-8.852z"/></g></symbol></svg>