<?xml version="1.0" encoding="UTF-8"?>
<svg width="30px" height="30px" viewBox="0 0 30 30" version="1.1" xmlns="http://www.w3.org/2000/svg" xmlns:xlink="http://www.w3.org/1999/xlink">
    <!-- Generator: Sketch 55.2 (78181) - https://sketchapp.com -->
    <title>icons/black/arrow</title>
    <desc>Created with Sketch.</desc>
    <g id="icons/black/arrow" stroke="none" stroke-width="1" fill="none" fill-rule="evenodd">
        <rect fill="#EEEEEE" x="0" y="0" width="30" height="30"></rect>
        <g id="icons/dark/twitter">
            <rect id="size" x="0" y="0" width="30" height="30"></rect>
            <path d="M13.3031379,17.3397559 L12.93309,3.87334862 C12.9201949,3.40408373 13.2901557,3.01321583 13.7594206,3.00032074 C13.7672016,3.00010692 13.7749852,3 13.7827692,3 L17.2251948,3 C17.6946369,3 18.0751948,3.38055796 18.0751948,3.85 C18.0751948,3.85519 18.0751473,3.86037989 18.0750522,3.86556901 L17.8321542,17.1245171 C18.4941523,15.9906147 19.0774184,15.0051009 19.459714,14.3881445 L20.8196158,12.1289588 C21.5395638,10.999366 22.4994944,11.806218 24.6593384,12.61307 C25.2992922,12.8551256 24.8993211,13.5006073 24.5793442,14.0654037 C22.9794598,16.7280153 17.29987,26.4909247 16.9798931,26.8136655 C16.8199047,26.9750359 14.2600896,27.1364063 14.0201069,26.8136655 C12.1802398,24.3931095 7.94054601,16.7280153 6.42065579,14.0654037 C6.1006789,13.5006073 5.70070779,12.8551256 6.34066157,12.61307 C8.50050557,11.806218 9.54043045,10.999366 10.1803842,12.1289588 L11.540286,14.3881445 L13.3031379,17.3397559 Z" id="&gt;-2" fill="#000000" fill-rule="nonzero"></path>
        </g>
    </g>
</svg>