<?xml version="1.0" encoding="UTF-8"?>
<svg width="30px" height="30px" viewBox="0 0 30 30" version="1.1" xmlns="http://www.w3.org/2000/svg" xmlns:xlink="http://www.w3.org/1999/xlink">
    <!-- Generator: Sketch 55.2 (78181) - https://sketchapp.com -->
    <title>icons/white/instagram</title>
    <desc>Created with Sketch.</desc>
    <g id="icons/white/instagram" stroke="none" stroke-width="1" fill="none" fill-rule="evenodd">
        <rect fill="#EEEEEE" x="0" y="0" width="30" height="30"></rect>
        <g id="black/instagram">
            <rect id="size" x="0" y="0" width="30" height="30"></rect>
            <path d="M25,15 C25,16.74 24.93,18.49 24.87,20.24 C24.858074,21.0119592 24.6807546,21.7723865 24.35,22.47 C23.7969386,23.6556749 22.6989916,24.4959405 21.41,24.72 C20.6500798,24.8831647 19.8768958,24.976884 19.1,25 C16.59,25 14.1,25.05 11.56,25 C10.5546943,25.0290423 9.54912967,24.951949 8.56,24.77 C6.79659866,24.4501646 5.44222563,23.0270622 5.21,21.25 C5.07914051,20.4296184 5.00895022,19.6007045 5,18.77 C5,16.39 5,14 5,11.62 C4.96959972,10.6146624 5.04670402,9.60895418 5.23,8.62 C5.54719877,6.74510906 7.10356123,5.3291082 9,5.19 C10.0258824,5.07169485 11.0573518,5.00827117 12.09,5 C14.2,5 16.31,5 18.43,5 C19.402147,4.97127739 20.3745339,5.04839773 21.33,5.23 C23.2109309,5.54228443 24.6353439,7.09881685 24.78,9 C24.9,10 24.92,11 24.95,12 C24.98,13 24.95,14 24.95,15 L24.95,15 M21.19,15 C21.1817379,12.4635675 19.643731,10.1828078 17.2953091,9.22443811 C14.9468872,8.2660684 12.2522607,8.81952879 10.4717135,10.6259644 C8.69116628,12.4324 8.17665749,15.1347344 9.16882422,17.4690786 C10.160991,19.8034229 12.4637125,21.3083494 15,21.28 C16.6602579,21.2747041 18.2504111,20.6100859 19.42064,19.4323556 C20.5908688,18.2546253 21.2453128,16.6602578 21.2400321,15 M21.5,7 C20.697526,7.0166825 20.0567858,7.67397325 20.0605527,8.47661169 C20.0643528,9.27925014 20.7112611,9.93047114 21.5138567,9.93958763 C22.3164523,9.94870413 22.9779859,9.31234542 23,8.51 C23.0169718,8.10631204 22.8647371,7.71385033 22.5799852,7.42720009 C22.2952333,7.14054984 21.9037918,6.98571082 21.5,7 M15,10.94 C13.3468558,10.9115677 11.8407918,11.8860475 11.1892957,13.4056681 C10.5377996,14.9252888 10.8703558,16.688027 12.0307428,17.8658199 C13.1911299,19.0436127 14.9487218,19.4023749 16.4778732,18.7735743 C18.0070246,18.1447738 19.0038179,16.6533843 19.0000525,15 C19.0112125,12.7731655 17.22662,10.9528811 15,10.92" id="icon" fill="#FFFFFF" fill-rule="nonzero"></path>
        </g>
    </g>
</svg>