<?xml version="1.0" encoding="UTF-8"?>
<svg width="30px" height="30px" viewBox="0 0 30 30" version="1.1" xmlns="http://www.w3.org/2000/svg" xmlns:xlink="http://www.w3.org/1999/xlink">
    <!-- Generator: Sketch 55.2 (78181) - https://sketchapp.com -->
    <title>icons/white/linkedin</title>
    <desc>Created with Sketch.</desc>
    <g id="icons/white/linkedin" stroke="none" stroke-width="1" fill="none" fill-rule="evenodd">
        <rect fill="#EEEEEE" x="0" y="0" width="30" height="30"></rect>
        <g id="black/linkedin">
            <rect id="size" x="0" y="0" width="30" height="30"></rect>
            <path d="M5.5,24.5 L9.72,24.5 L9.72,11.83 L5.5,11.83 L5.5,24.5 Z M7.62,5.5 C7.04943464,5.46477475 6.49106665,5.6753844 6.0858934,6.07864645 C5.68072015,6.48190851 5.46747283,7.03927447 5.5,7.61 C5.46868794,8.17160436 5.67531038,8.72043403 6.06921731,9.12195269 C6.46312423,9.52347134 7.00789927,9.7405589 7.57,9.72 L7.57,9.72 C8.14056536,9.75522525 8.69893335,9.5446156 9.1041066,9.14135355 C9.50927985,8.73809149 9.72252717,8.18072553 9.69,7.61 C9.72131206,7.04839564 9.51468962,6.49956597 9.12078269,6.09804731 C8.72687577,5.69652866 8.18210073,5.4794411 7.62,5.5 Z M24.5,17.4 L24.5,24.5 L20.35,24.5 L20.35,17.88 C20.35,16.22 19.75,15.08 18.25,15.08 C17.2926127,15.0837964 16.44053,15.6878551 16.12,16.59 C16.0120117,16.9118351 15.964545,17.2508828 15.98,17.59 L15.98,24.5 L11.83,24.5 C11.83,24.5 11.89,13.29 11.83,12.12 L16,12.12 L16,13.88 L16,13.88 L16,13.88 L16,13.88 C16.7733064,12.5593311 18.2107056,11.7714518 19.74,11.83 C22.45,11.83 24.5,13.6 24.5,17.4 Z" id="icon" fill="#FFFFFF" fill-rule="nonzero"></path>
        </g>
    </g>
</svg>