<?xml version="1.0" encoding="UTF-8"?>
<svg width="30px" height="30px" viewBox="0 0 30 30" version="1.1" xmlns="http://www.w3.org/2000/svg" xmlns:xlink="http://www.w3.org/1999/xlink">
    <!-- Generator: Sketch 55.2 (78181) - https://sketchapp.com -->
    <title>icons/white/twitter</title>
    <desc>Created with Sketch.</desc>
    <g id="icons/white/twitter" stroke="none" stroke-width="1" fill="none" fill-rule="evenodd">
        <rect fill="#EEEEEE" x="0" y="0" width="30" height="30"></rect>
        <g id="icons/dark/twitter">
            <rect id="size" x="0" y="0" width="30" height="30"></rect>
            <path d="M23.75,10.58 C23.75,10.77 23.75,10.96 23.75,11.16 C23.747667,14.5446757 22.3890442,17.7872496 19.97793,20.1626576 C17.5668157,22.5380655 14.3043338,23.8481622 10.92,23.8 C8.46983132,23.8067038 6.06881804,23.1127694 4,21.8 C4.35857013,21.8404735 4.71915323,21.8605059 5.08,21.86 C7.10638424,21.8692928 9.07764335,21.2004727 10.68,19.96 C8.76404833,19.9343597 7.07447177,18.69828 6.47,16.88 C6.75026477,16.9327884 7.03480749,16.9595689 7.32,16.96 C7.71865214,16.9587055 8.11539735,16.9049095 8.5,16.8 C6.41010632,16.3992658 4.89441018,14.5779182 4.88,12.45 L4.88,12.39 C5.51174942,12.7303992 6.21292842,12.9219408 6.93,12.95 C5.68440682,12.1306787 4.93317455,10.740899 4.93,9.25 C4.92281593,8.45953704 5.13017832,7.68192809 5.53,7 C7.84298156,9.78677702 11.2223415,11.4710123 14.84,11.64 C14.7597443,11.3127393 14.7194505,10.9769574 14.72,10.64 C14.7420015,8.16965772 16.7596158,6.1833589 19.23,6.1998962 C20.4747592,6.19777062 21.6665681,6.70338652 22.53,7.6 C23.5371532,7.40293424 24.5039781,7.03783951 25.39,6.52 C25.0454691,7.55636887 24.3342308,8.43119203 23.39,8.98 C24.2834583,8.87738113 25.1564897,8.64142669 25.98,8.28 C25.3752701,9.17643163 24.612926,9.95571673 23.73,10.58" id="icon" fill="#FFFFFF" fill-rule="nonzero"></path>
        </g>
    </g>
</svg>